# xmcd CD database file
#
# Track frame offsets:
#	150
#	16139
#	31783
#	49644
#	61867
#	75788
#	90079
#	107261
#	118288
#	130667
#
# Disc length: 1904 seconds
#
# Revision: 0
# Processed by: cddbd v1.5.2PL0 Copyright (c) Steve Scherf et al.
# Submitted via: CDex 1.51
#
DISCID=5e076e0a
DTITLE=Woodsboss - II
DYEAR=2009
DGENRE=Country
TTITLE0=Mescalina
TTITLE1=On How The West Was Lost
TTITLE2=First Impression
TTITLE3=Hambone
TTITLE4=Noose
TTITLE5=Break My Mind
TTITLE6=Wedding Gown
TTITLE7=Centerville Road
TTITLE8=I'm Doing This For You
TTITLE9=Dogwood Flower
EXTD=YEAR: 2009
EXTT0=
EXTT1=
EXTT2=
EXTT3=
EXTT4=
EXTT5=
EXTT6=
EXTT7=
EXTT8=
EXTT9=
PLAYORDER=
